HIERARCHY
ROOT Hips
{
	OFFSET 55.423698 -12.051916 96.912399
	CHANNELS 6 Xposition Yposition Zposition Xrotation Yrotation Zrotation
	JOINT spine
	{
		OFFSET 0.000000 -0.458068 7.965683
		CHANNELS 3 Xrotation Yrotation Zrotation
		JOINT spine1
		{
			OFFSET 0.000000 -0.000002 10.243103
			CHANNELS 3 Xrotation Yrotation Zrotation
			JOINT spine2
			{
				OFFSET 0.000000 -0.000001 9.814751
				CHANNELS 3 Xrotation Yrotation Zrotation
				JOINT Neck
				{
					OFFSET 0.000000 -1.201385 25.198601
					CHANNELS 3 Xrotation Yrotation Zrotation
					JOINT Head
					{
						OFFSET 0.000000 -0.000001 7.613144
						CHANNELS 3 Xrotation Yrotation Zrotation
						End Site
						{
							OFFSET 0.000000 6.077327 18.428101
						}
					}
				}
				JOINT RightShoulder
				{
					OFFSET -4.132698 0.575449 10.599205
					CHANNELS 3 Xrotation Yrotation Zrotation
					JOINT RightArm
					{
						OFFSET 0.000000 -0.000003 13.901794
						CHANNELS 3 Xrotation Yrotation Zrotation
						JOINT RightArmRoll
						{
							OFFSET 0.000000 -0.000001 7.017883
							CHANNELS 3 Xrotation Yrotation Zrotation
							JOINT RightForeArm
							{
								OFFSET 0.000000 -0.000003 20.440598
								CHANNELS 3 Xrotation Yrotation Zrotation
								JOINT RightForeArmRoll
								{
									OFFSET 0.000000 -0.000002 7.875153
									CHANNELS 3 Xrotation Yrotation Zrotation
									JOINT RightHand
									{
										OFFSET 0.000000 -0.000002 15.803696
										CHANNELS 3 Xrotation Yrotation Zrotation
										End Site
										{
											OFFSET 0.000000 0.000000 0.100006
										}
									}
								}
							}
						}
					}
				}
				JOINT LeftShoulder
				{
					OFFSET 4.132698 0.575449 10.599205
					CHANNELS 3 Xrotation Yrotation Zrotation
					JOINT LeftArm
					{
						OFFSET 0.000000 -0.000003 13.901794
						CHANNELS 3 Xrotation Yrotation Zrotation
						JOINT LeftArmRoll
						{
							OFFSET 0.000000 -0.000001 7.017883
							CHANNELS 3 Xrotation Yrotation Zrotation
							JOINT LeftForeArm
							{
								OFFSET 0.000000 -0.000003 20.440598
								CHANNELS 3 Xrotation Yrotation Zrotation
								JOINT LeftForeArmRoll
								{
									OFFSET 0.000000 -0.000002 7.875153
									CHANNELS 3 Xrotation Yrotation Zrotation
									JOINT LeftHand
									{
										OFFSET 0.000000 -0.000002 15.803696
										CHANNELS 3 Xrotation Yrotation Zrotation
										End Site
										{
											OFFSET 0.000000 0.000000 0.100006
										}
									}
								}
							}
						}
					}
				}
			}
		}
	}
	JOINT RightUpLeg
	{
		OFFSET -7.060478 1.086101 -1.294701
		CHANNELS 3 Xrotation Yrotation Zrotation
		JOINT RightUpLegRoll
		{
			OFFSET 0.000000 -0.000004 18.530800
			CHANNELS 3 Xrotation Yrotation Zrotation
			JOINT RightLeg
			{
				OFFSET 0.000000 0.000004 -22.947601
				CHANNELS 3 Xrotation Yrotation Zrotation
				JOINT RightLegRoll
				{
					OFFSET 0.000000 -0.000004 23.022598
					CHANNELS 3 Xrotation Yrotation Zrotation
					JOINT RightFoot
					{
						OFFSET 0.000000 -0.000003 19.162506
						CHANNELS 3 Xrotation Yrotation Zrotation
						JOINT RightToeBase
						{
							OFFSET 0.000000 -0.000003 16.018799
							CHANNELS 3 Xrotation Yrotation Zrotation
							End Site
							{
								OFFSET 0.006790 0.894206 7.757828
							}
						}
					}
				}
			}
		}
	}
	JOINT LeftUpLeg
	{
		OFFSET 7.060478 1.086101 -1.294701
		CHANNELS 3 Xrotation Yrotation Zrotation
		JOINT LeftUpLegRoll
		{
			OFFSET 0.000000 -0.000004 18.530899
			CHANNELS 3 Xrotation Yrotation Zrotation
			JOINT LeftLeg
			{
				OFFSET 0.000000 -0.000003 22.947502
				CHANNELS 3 Xrotation Yrotation Zrotation
				JOINT LeftLegRoll
				{
					OFFSET 0.000000 -0.000004 23.235504
					CHANNELS 3 Xrotation Yrotation Zrotation
					JOINT LeftFoot
					{
						OFFSET 0.000000 -0.000004 18.949600
						CHANNELS 3 Xrotation Yrotation Zrotation
						JOINT LeftToeBase
						{
							OFFSET 0.000000 -0.000002 16.018799
							CHANNELS 3 Xrotation Yrotation Zrotation
							End Site
							{
								OFFSET -0.030430 0.894205 7.757828
							}
						}
					}
				}
			}
		}
	}
}
MOTION
Frames: 6
Frame Time: 0.041667
54.746899 -10.063420 96.999496 -4.954898 -1.102506 3.238913 -0.379776 -0.080357 -0.245528 3.242933 -0.167073 -0.504651 4.887982 -0.173011 -0.502714 11.892140 11.481376 -0.382225 4.973059 -7.184875 0.055198 -10.974392 -70.279279 -13.524137 -57.366028 -109.915372 -41.358756 0.000002 0.000013 0.000005 12.515805 -3.006280 -0.645210 -0.000002 -0.000005 -3.002241 -5.000162 -7.999722 0.000056 -2.655182 66.459674 3.926146 -50.508955 117.324728 42.024091 0.000004 0.000017 -0.000002 2.645878 4.427365 0.768341 -0.000002 -0.000005 3.005200 -5.000199 7.999500 -0.000060 1.717065 -176.159717 3.830464 -179.999991 0.000005 -1.118001 172.252398 -1.982743 -0.573706 -0.000003 -0.000004 0.164020 71.141857 6.880321 2.025155 25.456955 -7.355614 0.000000 5.773687 177.110712 -0.860761 -0.000020 -0.000004 -1.223540 -5.143383 1.935859 0.206855 -0.000003 -0.000000 -0.045065 68.488650 -6.925985 -2.081197 25.456919 7.348464 -0.000002 
54.753300 -10.051417 96.994095 -4.956931 -1.096514 3.224434 -0.379593 -0.081116 -0.245514 3.243294 -0.168254 -0.503619 4.888342 -0.174202 -0.501656 11.914071 11.480768 -0.375110 4.955127 -7.202977 0.066224 -10.968737 -70.234999 -13.515765 -57.110746 -109.898639 -41.039420 0.000003 0.000013 0.000003 12.634192 -2.947455 -0.648281 -0.000002 -0.000005 -3.002240 -5.000162 -7.999722 0.000056 -2.648596 66.474591 3.920190 -50.432109 117.204325 41.939779 0.000000 0.000017 -0.000001 2.767055 4.454754 0.763050 -0.000003 -0.000005 3.005200 -5.000200 7.999500 -0.000060 1.715844 -176.164717 3.830244 -179.999991 0.000005 -1.118001 172.254543 -1.987707 -0.573295 -0.000003 -0.000004 0.164050 71.141003 6.880293 2.025204 25.456952 -7.355616 0.000000 5.781518 177.104783 -0.868448 -0.000020 -0.000005 -1.223540 -5.141642 1.939351 0.206856 -0.000003 -0.000001 -0.045065 68.488759 -6.926030 -2.081100 25.456916 7.348464 -0.000001 
54.739399 -10.066221 96.997498 -4.958947 -1.090504 3.209705 -0.379450 -0.081862 -0.245493 3.243584 -0.169414 -0.502541 4.888634 -0.175373 -0.500550 11.936305 11.480047 -0.368016 4.937414 -7.220024 0.077119 -10.962460 -70.190951 -13.506689 -56.852319 -109.880989 -40.718565 0.000002 0.000013 0.000003 12.754595 -2.890052 -0.651531 -0.000001 -0.000003 -3.002241 -5.000166 -7.999722 0.000056 -2.639961 66.488948 3.911875 -50.350758 117.083294 41.851895 -0.000000 0.000017 -0.000001 2.888557 4.483550 0.757550 -0.000001 -0.000005 3.005200 -5.000198 7.999500 -0.000060 1.714359 -176.169703 3.830115 -179.999991 0.000005 -1.118001 172.256264 -1.993671 -0.574045 -0.000003 -0.000004 0.164093 71.140354 6.880299 2.025144 25.456955 -7.355616 0.000000 5.789417 177.098855 -0.876234 -0.000020 -0.000004 -1.223540 -5.139932 1.942941 0.206856 -0.000004 -0.000001 -0.045066 68.488971 -6.926007 -2.081082 25.456916 7.348462 -0.000002 
54.738300 -10.060815 97.000305 -4.960970 -1.084493 3.194819 -0.379326 -0.082599 -0.245467 3.243824 -0.170558 -0.501428 4.888874 -0.176529 -0.499410 11.958739 11.479221 -0.360901 4.919840 -7.236346 0.087923 -10.955746 -70.147142 -13.497131 -56.594162 -109.862479 -40.399391 0.000003 0.000012 0.000002 12.876520 -2.833667 -0.654988 -0.000002 -0.000004 -3.002241 -5.000162 -7.999722 0.000056 -2.629875 66.502724 3.901884 -50.265572 116.962044 41.760740 0.000000 0.000018 -0.000001 3.010291 4.513340 0.751860 -0.000002 -0.000005 3.005200 -5.000199 7.999500 -0.000060 1.712697 -176.174703 3.830045 -179.999991 0.000005 -1.118001 172.257658 -1.998632 -0.573672 -0.000003 -0.000004 0.164147 71.139931 6.880304 2.025171 25.456957 -7.355615 0.000001 5.797374 177.091915 -0.884190 -0.000020 -0.000005 -1.223541 -5.138243 1.946622 0.206858 -0.000004 -0.000001 -0.045066 68.489073 -6.926018 -2.081179 25.456918 7.348462 -0.000001 
54.749298 -10.064617 96.994698 -4.962990 -1.078472 3.179833 -0.379218 -0.083331 -0.245438 3.244034 -0.171693 -0.500298 4.889084 -0.177677 -0.498253 11.981273 11.478292 -0.353785 4.902342 -7.252247 0.098669 -10.948776 -70.103347 -13.487273 -56.332002 -109.844359 -40.076712 0.000002 0.000013 0.000004 12.999245 -2.777879 -0.658654 -0.000003 -0.000003 -3.002241 -5.000162 -7.999722 0.000055 -2.618980 66.516323 3.890948 -50.178777 116.840276 41.668368 0.000001 0.000017 -0.000001 3.132166 4.543682 0.746008 -0.000001 -0.000005 3.005200 -5.000200 7.999500 -0.000060 1.710923 -176.180700 3.829987 -179.999991 0.000005 -1.118002 172.258860 -2.004580 -0.574437 -0.000003 -0.000004 0.164206 71.139603 6.880305 2.025191 25.456952 -7.355614 0.000000 5.805358 177.085987 -0.892085 -0.000020 -0.000005 -1.223540 -5.136563 1.950333 0.206857 -0.000004 -0.000001 -0.045066 68.489182 -6.926022 -2.081170 25.456919 7.348464 -0.000002 
54.747601 -10.083417 96.997894 -4.965000 -1.072442 3.164829 -0.379114 -0.084062 -0.245410 3.244244 -0.172827 -0.499162 4.889294 -0.178823 -0.497090 12.003909 11.477449 -0.346700 4.884870 -7.268050 0.109396 -10.941813 -70.059661 -13.477420 -56.071461 -109.826020 -39.755973 0.000002 0.000012 0.000002 13.122074 -2.722246 -0.662563 0.000000 -0.000004 -3.002241 -5.000162 -7.999722 0.000057 -2.607846 66.529915 3.879749 -50.091272 116.718466 41.575290 -0.000000 0.000018 -0.000001 3.254083 4.574156 0.740019 -0.000002 -0.000005 3.005200 -5.000201 7.999501 -0.000060 1.709116 -176.185700 3.829969 -179.999991 0.000005 -1.118002 172.260035 -2.010528 -0.574206 -0.000003 -0.000004 0.164267 71.139398 6.880308 2.025005 25.456955 -7.355616 0.000000 5.813346 177.080072 -0.899991 -0.000020 -0.000005 -1.223540 -5.134883 1.954062 0.206858 -0.000004 -0.000001 -0.045066 68.489292 -6.926029 -2.081167 25.456916 7.348462 -0.000000 
